<svg version="1.1" xmlns="http://www.w3.org/2000/svg" xmlns:xlink="http://www.w3.org/1999/xlink" x="0px" y="0px" width="1200px"
   height="600px" viewBox="0 0 1200 600" style="enable-background:new 0 0 1200 600;" xml:space="preserve">
<style type="text/css">
  .st0{fill:#FFFFFF;}
</style>
<defs>
</defs>
<g>
  <path class="st0" d="M714.9,403.4l117.6-95.2L806,295.8c-3.7-1.7-5.5-6-4.2-9.9l23.2-71.5l-67.8,14.4c-3.8,0.8-7.6-1.2-9.1-4.8
    L735,193.1l-52.9,56.8c-3.1,3.3-8.2,3.4-11.5,0.3c-2-1.9-2.9-4.7-2.4-7.4l25.5-131.5l-40.9,23.6c-3.9,2.3-8.8,1-11.1-2.9
    c-0.1-0.2-0.2-0.3-0.3-0.5L600,50l-41.5,81.5c-2,4-6.9,5.6-10.9,3.6c-0.2-0.1-0.3-0.2-0.5-0.3l-40.9-23.6l25.5,131.5
    c0.8,4.4-2,8.7-6.4,9.5c-2.7,0.5-5.5-0.4-7.4-2.4L465,193.1L451.9,224c-1.5,3.6-5.3,5.5-9.1,4.8L375,214.4l23.2,71.5
    c1.3,3.9-0.5,8.1-4.2,9.9l-26.5,12.4l117.6,95.2c2.7,2.2,3.7,5.9,2.5,9.1l-14.5,40l107.4-18.9c6.5-1.1,12.6,3.2,13.7,9.7
    c0.1,0.8,0.2,1.7,0.2,2.6l-5.6,107.9h22.5l-5.6-107.9c-0.3-6.6,4.8-12.1,11.3-12.4c0.9,0,1.7,0,2.6,0.2l107.4,18.9l-14.5-40
    C711.2,409.2,712.2,405.6,714.9,403.4z"/>
  <rect x="900" class="st0" width="300" height="600"/>
  <rect class="st0" width="300" height="600"/>
</g>
</svg>
