<!-- Generator: Adobe Illustrator 23.1.1, SVG Export Plug-In  -->
<svg version="1.1" xmlns="http://www.w3.org/2000/svg" xmlns:xlink="http://www.w3.org/1999/xlink" x="0px" y="0px"
   width="1199.3px" height="601.2px" viewBox="0 0 1199.3 601.2" style="enable-background:new 0 0 1199.3 601.2;"
   xml:space="preserve">
<style type="text/css">
  .st0{fill:#FFFFFF;}
</style>
<defs>
</defs>
<g>
  <rect x="455.9" class="st0" width="743.4" height="45.6"/>
  <rect x="455.9" y="92.1" class="st0" width="743.4" height="46"/>
  <rect x="455.9" y="185" class="st0" width="743.4" height="46.5"/>
  <rect x="455.9" y="277" class="st0" width="743.4" height="47"/>
  <rect y="370" class="st0" width="1199.3" height="46"/>
  <rect y="462.5" class="st0" width="1199.3" height="46"/>
  <rect y="555.5" class="st0" width="1199.3" height="45.8"/>
  <path class="st0" d="M31.8,293.1l-10.4-7.6h12.9l4-12.3l4,12.3h12.9l-10.4,7.6l4,12.3l-10.4-7.6l-10.4,7.6L31.8,293.1z
     M107.6,293.1l-10.5-7.6h12.9l4-12.3l4,12.3h12.9l-10.4,7.6l4,12.3l-10.4-7.6l-10.4,7.6L107.6,293.1z M183.7,293.1l-10.5-7.6h12.9
    l4-12.3l4,12.3H207l-10.4,7.6l4,12.3l-10.4-7.6l-10.5,7.6L183.7,293.1z M260,293.1l-10.4-7.6h12.9l4-12.3l4,12.3h12.9l-10.4,7.6
    l4,12.3l-10.5-7.6l-10.4,7.6L260,293.1z M336.4,293.1l-10.4-7.6h12.9l4-12.3l4,12.3h12.9l-10.4,7.6l4,12.3l-10.4-7.6l-10.4,7.6
    L336.4,293.1z M412.2,293.1l-10.4-7.6h12.9l4-12.3l4,12.3h12.9l-10.5,7.6l4,12.3l-10.5-7.6l-10.4,7.6L412.2,293.1z M69.7,260.2
    l-10.4-7.6h12.9l4-12.3l4,12.3H93l-10.4,7.6l4,12.3l-10.4-7.6l-10.4,7.6L69.7,260.2z M145.3,260.2l-10.4-7.6h12.9l4-12.3l4,12.3
    h12.9l-10.4,7.6l4,12.3l-10.4-7.6l-10.4,7.6L145.3,260.2z M222,260.2l-10.4-7.6h12.9l4-12.3l4,12.3h12.9l-10.5,7.6l4,12.3
    l-10.4-7.6l-10.4,7.6L222,260.2z M298,260.2l-10.4-7.6h12.9l4-12.3l4,12.3h12.9l-10.4,7.6l4,12.3l-10.4-7.6l-10.4,7.6L298,260.2z
     M374.3,260.2l-10.5-7.6h12.9l4-12.3l4,12.3h12.9l-10.4,7.6l4,12.3l-10.4-7.6l-10.4,7.6L374.3,260.2z M31.8,228.1l-10.4-7.6h12.9
    l4-12.3l4,12.3h12.9l-10.4,7.6l4,12.3l-10.4-7.6l-10.4,7.6L31.8,228.1z M107.6,228.1l-10.5-7.6h12.9l4-12.3l4,12.3h12.9l-10.4,7.6
    l4,12.3l-10.4-7.6l-10.4,7.6L107.6,228.1z M183.7,228.1l-10.5-7.6h12.9l4-12.3l4,12.3H207l-10.4,7.6l4,12.3l-10.4-7.6l-10.5,7.6
    L183.7,228.1z M260,228.1l-10.4-7.6h12.9l4-12.3l4,12.3h12.9l-10.4,7.6l4,12.3l-10.5-7.6l-10.4,7.6L260,228.1z M336.4,228.1
    l-10.4-7.6h12.9l4-12.3l4,12.3h12.9l-10.4,7.6l4,12.3l-10.4-7.6l-10.4,7.6L336.4,228.1z M412.2,228.1l-10.4-7.6h12.9l4-12.3l4,12.3
    h12.9l-10.5,7.6l4,12.3l-10.5-7.6l-10.4,7.6L412.2,228.1z M69.7,195.8l-10.4-7.6h12.9l4-12.3l4,12.3H93l-10.4,7.6l4,12.3l-10.4-7.6
    L65.7,208L69.7,195.8z M145.3,195.8l-10.4-7.6h12.9l4-12.3l4,12.3h12.9l-10.4,7.6l4,12.3l-10.4-7.6l-10.4,7.6L145.3,195.8z
     M222,195.8l-10.4-7.6h12.9l4-12.3l4,12.3h12.9l-10.5,7.6l4,12.3l-10.4-7.6L218,208L222,195.8z M298,195.8l-10.4-7.6h12.9l4-12.3
    l4,12.3h12.9l-10.4,7.6l4,12.3l-10.4-7.6L294,208L298,195.8z M374.3,195.8l-10.5-7.6h12.9l4-12.3l4,12.3h12.9l-10.4,7.6l4,12.3
    l-10.4-7.6l-10.4,7.6L374.3,195.8z M31.8,163.7l-10.4-7.6h12.9l4-12.3l4,12.3h12.9l-10.4,7.6l4,12.3l-10.4-7.6l-10.4,7.6
    L31.8,163.7z M107.6,163.7l-10.5-7.6h12.9l4-12.3l4,12.3h12.9l-10.4,7.6l4,12.3l-10.4-7.6l-10.4,7.6L107.6,163.7z M183.7,163.7
    l-10.5-7.6h12.9l4-12.3l4,12.3H207l-10.4,7.6l4,12.3l-10.4-7.6l-10.5,7.6L183.7,163.7z M260,163.7l-10.4-7.6h12.9l4-12.3l4,12.3
    h12.9l-10.4,7.6l4,12.3l-10.5-7.6l-10.4,7.6L260,163.7z M336.4,163.7l-10.4-7.6h12.9l4-12.3l4,12.3h12.9l-10.4,7.6l4,12.3
    l-10.4-7.6l-10.4,7.6L336.4,163.7z M412.2,163.7l-10.4-7.6h12.9l4-12.3l4,12.3h12.9l-10.5,7.6l4,12.3l-10.5-7.6l-10.4,7.6
    L412.2,163.7z M69.7,130.8l-10.4-7.6h12.9l4-12.3l4,12.3H93l-10.4,7.6l4,12.3l-10.4-7.6l-10.4,7.6L69.7,130.8z M145.3,130.8
    l-10.4-7.6h12.9l4-12.3l4,12.3h12.9l-10.4,7.6l4,12.3l-10.4-7.6l-10.4,7.6L145.3,130.8z M222,130.8l-10.4-7.6h12.9l4-12.3l4,12.3
    h12.9l-10.5,7.6l4,12.3l-10.4-7.6l-10.4,7.6L222,130.8z M298,130.8l-10.4-7.6h12.9l4-12.3l4,12.3h12.9l-10.4,7.6l4,12.3l-10.4-7.6
    l-10.4,7.6L298,130.8z M374.3,130.8l-10.5-7.6h12.9l4-12.3l4,12.3h12.9l-10.4,7.6l4,12.3l-10.4-7.6l-10.4,7.6L374.3,130.8z
     M31.8,98.7l-10.4-7.6h12.9l4-12.3l4,12.3h12.9l-10.4,7.6l4,12.3l-10.4-7.6L27.8,111L31.8,98.7z M107.6,98.7l-10.5-7.6h12.9l4-12.3
    l4,12.3h12.9l-10.4,7.6l4,12.3l-10.4-7.6l-10.4,7.6L107.6,98.7z M183.7,98.7l-10.5-7.6h12.9l4-12.3l4,12.3H207l-10.4,7.6l4,12.3
    l-10.4-7.6l-10.5,7.6L183.7,98.7z M260,98.7l-10.4-7.6h12.9l4-12.3l4,12.3h12.9l-10.4,7.6l4,12.3l-10.5-7.6L256,111L260,98.7z
     M336.4,98.7l-10.4-7.6h12.9l4-12.3l4,12.3h12.9l-10.4,7.6l4,12.3l-10.4-7.6l-10.4,7.6L336.4,98.7z M412.2,98.7l-10.4-7.6h12.9
    l4-12.3l4,12.3h12.9l-10.5,7.6l4,12.3l-10.5-7.6l-10.4,7.6L412.2,98.7z M69.7,66.6L59.2,59h12.9l4-12.3l4,12.3H93l-10.4,7.6l4,12.3
    l-10.4-7.6l-10.4,7.6L69.7,66.6z M145.3,66.6L134.8,59h12.9l4-12.3l4,12.3h12.9l-10.4,7.6l4,12.3l-10.4-7.6l-10.4,7.6L145.3,66.6z
     M222,66.6L211.6,59h12.9l4-12.3l4,12.3h12.9l-10.5,7.6l4,12.3l-10.4-7.6L218,78.9L222,66.6z M298,66.6L287.5,59h12.9l4-12.3
    l4,12.3h12.9l-10.4,7.6l4,12.3l-10.4-7.6L294,78.9L298,66.6z M374.3,66.6L363.9,59h12.9l4-12.3l4,12.3h12.9l-10.4,7.6l4,12.3
    l-10.4-7.6l-10.4,7.6L374.3,66.6z M31.8,34.5l-10.4-7.6h12.9l4-12.2l4,12.2h12.9l-10.4,7.6l4,12.3l-10.4-7.6l-10.4,7.6L31.8,34.5z
     M107.6,34.5l-10.5-7.6h12.9l4-12.2l4,12.2h12.9l-10.4,7.6l4,12.3l-10.4-7.6l-10.4,7.6L107.6,34.5z M183.7,34.5l-10.5-7.6h12.9
    l4-12.2l4,12.2H207l-10.4,7.6l4,12.3l-10.4-7.6l-10.5,7.6L183.7,34.5z M260,34.5l-10.4-7.6h12.9l4-12.2l4,12.2h12.9l-10.4,7.6
    l4,12.3l-10.5-7.6L256,46.7L260,34.5z M336.4,34.5l-10.4-7.6h12.9l4-12.2l4,12.2h12.9l-10.4,7.6l4,12.3l-10.4-7.6l-10.4,7.6
    L336.4,34.5z M412.2,34.5l-10.4-7.6h12.9l4-12.2l4,12.2h12.9l-10.5,7.6l4,12.3l-10.5-7.6l-10.4,7.6L412.2,34.5z M0,324h455.9V0H0
    V324z"/>
</g>
</svg>
