<?xml version="1.0" encoding="utf-8"?>
<!-- Generator: Adobe Illustrator 23.0.6, SVG Export Plug-In . SVG Version: 6.00 Build 0)  -->
<svg version="1.1" id="Layer_1" xmlns="http://www.w3.org/2000/svg" xmlns:xlink="http://www.w3.org/1999/xlink" x="0px" y="0px"
	 viewBox="0 0 412 40.4" style="enable-background:new 0 0 412 40.4;" xml:space="preserve">
<style type="text/css">
	.st0{fill:#FFFFFF;}
</style>
<g>
	<path class="st0" d="M0,0.5V0h0.3C3,0.1,5,0.2,6.3,0.2c0.9,0,2.6-0.1,5-0.2C11.8,0,12.1,0,12.4,0v0.5c-1,0.2-1.7,0.5-2.1,0.9
		C9.9,1.7,9.7,2.3,9.7,3c0,0.5,0.2,1.1,0.5,2c0.3,0.9,1,2.2,2,4.1l12.4,24l7.8-16.6c1.9-4.1,3.2-6.9,3.8-8.5C36.7,6.3,37,5,37,4.1
		c0-1.1-0.3-2-1-2.6c-0.7-0.6-1.6-1-2.7-1V0c1,0.1,2,0.1,3,0.2c1,0,2.1,0.1,3.2,0.1c1,0,2,0,2.9-0.1c1,0,1.9-0.1,2.9-0.2v0.5
		c-1.3,0.4-2.8,1.8-4.5,4.2c-1.7,2.5-3.8,6.1-6,10.8L22.8,40.4h-0.3L8.4,12.4c0-0.1-0.1-0.2-0.2-0.4C4.5,4.7,1.8,0.9,0,0.5"/>
	<path class="st0" d="M46.2,18.3h19.9c-0.1-3.1-1-5.5-2.7-7.3c-1.7-1.8-3.9-2.7-6.6-2.7c-2.7,0-5,0.9-6.9,2.6
		C48.1,12.6,46.8,15.1,46.2,18.3 M71.8,26.4l0.9,1.2c-1.2,4.1-3.2,7.3-5.8,9.4c-2.7,2.1-6,3.2-10,3.2c-4.9,0-8.9-1.6-12-4.7
		c-3.1-3.1-4.7-7.1-4.7-12c0-4.8,1.5-8.7,4.6-11.8c3.1-3.1,7.1-4.6,11.9-4.6c4.3,0,7.8,1.1,10.6,3.3c2.7,2.2,4.3,5.2,4.8,9.1H46
		c0,0.6-0.1,1.2-0.1,1.7c0,0.6,0,1.2,0,2c0,4.6,1.1,8.3,3.4,11c2.3,2.7,5.3,4.1,9.1,4.1c3.3,0,6.1-1,8.3-3.1
		C68.9,33.3,70.6,30.3,71.8,26.4"/>
	<path class="st0" d="M75.5,39.5V39c1.5-0.4,2.5-1.3,3-2.6c0.6-1.3,0.8-4.1,0.8-8.3v-2.5v-8c0-3.3-0.2-5.2-0.7-5.9
		c-0.5-0.7-1.4-1.1-2.7-1.1l0-0.5c1.1-0.2,2.2-0.5,3.5-0.8c1.3-0.3,2.7-0.7,4.3-1.2l-0.1,9.1c1.3-3,2.9-5.3,4.8-6.9
		c1.9-1.6,4-2.4,6.2-2.4c0.3,0,0.6,0,0.7,0c0.2,0,0.3,0,0.5,0.1l-2.3,6.6h-0.3c-0.4-0.5-0.8-0.9-1.3-1.1c-0.5-0.2-1-0.4-1.7-0.4
		c-2,0-3.5,0.9-4.6,2.8c-1.1,1.8-1.6,4.5-1.6,8v3.5c0,4.8,0.3,7.8,0.8,9.1c0.5,1.3,1.6,2.1,3.1,2.6l0,0.5c-1.1-0.1-2.1-0.1-3.2-0.2
		c-1,0-2.1-0.1-3.1-0.1c-0.8,0-1.8,0-2.8,0.1C77.8,39.3,76.7,39.4,75.5,39.5"/>
	<path class="st0" d="M124.7,33.5c-1.1,2.2-2.7,3.9-4.6,5c-1.9,1.1-4.3,1.6-7.2,1.6c-2.6,0-4.9-0.4-6.7-1.2c-1.8-0.8-3.3-2-4.5-3.6
		c-0.7-1-1.2-2.2-1.5-3.6c-0.3-1.4-0.4-3.7-0.4-6.8v-1.6v-6.8c0-2.5-0.2-4.1-0.7-4.8c-0.5-0.7-1.3-1.1-2.6-1.2v-0.5
		c1.1-0.1,2.4-0.4,3.7-0.7c1.3-0.4,2.9-0.9,4.6-1.5c-0.1,1.7-0.1,3.3-0.2,4.9c0,1.6-0.1,3.1-0.1,4.6v4.8c0,6.6,0.7,11,2.1,13.1
		c1.4,2.1,3.9,3.2,7.5,3.2c3.7,0,6.5-1.2,8.2-3.7c1.7-2.4,2.6-6.3,2.6-11.6v-5c0-3.4-0.2-5.6-0.7-6.3c-0.5-0.8-1.4-1.2-2.7-1.3
		l0-0.5c1.3-0.2,2.7-0.5,4-0.9c1.4-0.4,2.8-0.8,4.2-1.3c-0.1,1.6-0.1,3.2-0.2,4.8c0,1.6-0.1,3.2-0.1,4.7v5.8
		c0,6.5,0.3,10.7,0.8,12.5c0.6,1.8,1.6,2.9,3,3.2v0.4c-0.2,0-0.4,0-0.7,0c-2-0.1-3.4-0.1-4.2-0.1h-1.5c-0.5-0.9-0.9-1.8-1.2-2.7
		C125.3,35.6,125,34.6,124.7,33.5"/>
	<path class="st0" d="M136.2,37.3l2.1-6.8h0.3c0.3,2.5,1.6,4.5,3.8,6.1c2.2,1.5,5.1,2.3,8.4,2.3c2.9,0,5.2-0.7,7-2.1
		c1.8-1.4,2.6-3.3,2.6-5.5c0-1.9-0.6-3.3-1.7-4.2c-1.1-0.9-3.8-1.6-8.1-2.1c-4.3-0.6-7.4-1.5-9.4-2.9c-2-1.4-2.9-3.3-2.9-5.7
		c0-2.6,1.3-4.8,3.9-6.6c2.6-1.8,6-2.6,10.2-2.6c2.3,0,4.4,0.2,6.4,0.5c2,0.3,3.8,0.8,5.4,1.5l-1.7,5.8h-0.4c-0.6-2.2-1.7-3.9-3.2-5
		c-1.6-1.1-3.5-1.7-6-1.7c-2.7,0-4.9,0.7-6.6,2c-1.7,1.3-2.6,3-2.6,5.1c0,1.6,0.6,2.9,1.8,3.7c1.2,0.8,3.9,1.4,8.1,1.9
		c4.7,0.5,8,1.4,9.9,2.7c1.8,1.2,2.8,3.1,2.8,5.5c0,3.4-1.4,6-4.3,8.1c-2.9,2-6.8,3-11.7,3c-2.6,0-5-0.2-7.3-0.7
		C140.5,39,138.3,38.3,136.2,37.3"/>
	<path class="st0" d="M179.5,19.2c1.6,0.2,3,0.3,4.1,0.4c1.2,0.1,2.1,0.1,2.9,0.1c4.9,0,8.7-0.9,11.6-2.6c2.9-1.7,4.3-4,4.3-6.8
		c0-3-1.4-5.2-4.2-6.6c-2.8-1.4-7.3-2.1-13.3-2.1c-0.7,0-1.6,0-2.8,0.1c-1.2,0-2,0.1-2.5,0.1L179.5,19.2z M179.5,20.9l0,5.3
		c0,5.1,0.3,8.5,0.9,10c0.6,1.5,1.7,2.5,3.3,2.9l0,0.5c-1.3-0.1-2.6-0.1-3.8-0.2c-1.2,0-2.3-0.1-3.3-0.1c-1,0-2,0-3.1,0.1
		c-1,0-2.1,0.1-3.2,0.2l0-0.5c1.5-0.4,2.6-1.3,3.1-2.6c0.6-1.3,0.8-4.2,0.8-8.7v-1.9V5.1c0-1.3-0.3-2.3-0.8-3.1
		c-0.6-0.8-1.4-1.2-2.5-1.4V0.2c1.2,0,2.5,0,3.8,0c1.3,0,3.1,0,5.4,0h6.1c8,0,13.8,0.8,17.3,2.4c3.5,1.6,5.2,4.2,5.2,7.8
		c0,3.3-1.8,5.9-5.5,7.8c-3.6,1.9-8.7,2.9-15.1,2.9c-1.1,0-2.3,0-3.7-0.1C183.1,21.1,181.4,21,179.5,20.9"/>
	<path class="st0" d="M234.3,21.2c-0.3,0-0.6,0-1,0c-0.4,0-0.9,0-1.6,0c-5.3,0-9.4,0.8-12.3,2.5c-2.9,1.6-4.3,4-4.3,7
		c0,2.4,0.8,4.2,2.3,5.6c1.5,1.4,3.6,2.1,6.1,2.1c3.3,0,6-1.1,7.9-3.2c1.9-2.1,2.9-5,2.9-8.7v-3.3V21.2z M242.8,39.4h-0.2
		c-2.2-0.1-3.7-0.1-4.7-0.1h-1.6c-0.5-0.9-1-1.8-1.3-2.8c-0.4-1-0.7-1.9-0.9-3c-1.2,2.2-2.8,3.8-4.9,4.9c-2.1,1.1-4.5,1.7-7.3,1.7
		c-3.8,0-6.8-0.9-9.1-2.7c-2.2-1.8-3.3-4.2-3.3-7.2c0-3.4,2-5.9,5.9-7.6c3.9-1.7,9.7-2.6,17.3-2.6l1.5,0c-0.1-4-1-7-2.6-8.9
		c-1.6-1.9-4.1-2.8-7.4-2.8c-3.1,0-5.6,0.7-7.5,2.1c-1.9,1.4-3.1,3.4-3.6,6h-0.3l-1.9-6.1c2-1.1,4.1-1.8,6.4-2.4
		c2.3-0.5,4.7-0.8,7.3-0.8c2.5,0,4.8,0.3,6.7,1s3.5,1.6,4.7,2.8c1,1,1.7,2.2,2.1,3.7c0.4,1.4,0.6,3.7,0.6,6.9v4.3
		c0,5,0.3,8.3,0.8,10.1c0.6,1.7,1.6,2.8,3,3.2V39.4z"/>
	<path class="st0" d="M244.5,39.5V39c1.5-0.4,2.5-1.3,3-2.6c0.6-1.3,0.8-4.1,0.8-8.3v-2.5v-8c0-3.3-0.2-5.2-0.7-5.9
		s-1.4-1.1-2.7-1.1l0-0.5c1.1-0.2,2.2-0.5,3.5-0.8c1.3-0.3,2.7-0.7,4.3-1.2l-0.1,9.1c1.3-3,2.9-5.3,4.8-6.9c1.9-1.6,4-2.4,6.2-2.4
		c0.3,0,0.6,0,0.7,0c0.2,0,0.3,0,0.5,0.1l-2.3,6.6h-0.3c-0.4-0.5-0.8-0.9-1.3-1.1c-0.5-0.2-1-0.4-1.7-0.4c-2,0-3.5,0.9-4.6,2.8
		c-1.1,1.8-1.6,4.5-1.6,8v3.5c0,4.8,0.3,7.8,0.8,9.1c0.5,1.3,1.6,2.1,3.1,2.6l0,0.5c-1.1-0.1-2.1-0.1-3.2-0.2c-1,0-2.1-0.1-3.1-0.1
		c-0.9,0-1.8,0-2.8,0.1C246.8,39.3,245.7,39.4,244.5,39.5"/>
	<path class="st0" d="M266,11.1l0.4-0.9c2-0.6,3.6-1.6,5-3.1c1.4-1.5,2.8-3.8,4.1-6.9h0.5c-0.1,1.2-0.1,2.5-0.2,4
		c-0.1,1.5-0.1,3.1-0.1,5h6.6v0.4l-0.6,1.5h-6l0.1,14c0,5.5,0.4,9.1,1,10.8c0.6,1.7,1.8,2.7,3.6,3.1v0.4c-1.2,0-2.7,0-4.3-0.1
		c-1.6,0-2.6,0-2.8,0c-0.9-0.5-1.4-1.2-1.8-2.1c-0.3-0.9-0.5-2.7-0.5-5.4v-3.3V28c0-0.7,0.1-1.3,0.1-1.9l0.2-15H266z"/>
	<path class="st0" d="M284.5,39.5V39c1.5-0.5,2.5-1.3,3-2.7c0.5-1.3,0.8-4.2,0.8-8.8v-2.1V17c0-2.7-0.2-4.5-0.7-5.2
		c-0.5-0.7-1.3-1.1-2.6-1.2l0-0.4c1.3-0.3,2.6-0.7,3.9-1.1c1.2-0.4,2.4-0.8,3.6-1.2v9c0.8-3.2,2.3-5.7,4.5-7.3
		c2.2-1.7,5-2.5,8.5-2.5c2.3,0,4.4,0.5,6.2,1.4c1.8,0.9,3.3,2.2,4.3,3.8c0.7,1.1,1.2,2.6,1.5,4.3c0.3,1.7,0.4,4.3,0.4,7.7v2.4
		c0,5.2,0.3,8.4,0.8,9.7c0.5,1.3,1.5,2.2,3,2.6v0.5c-1.2-0.1-2.3-0.1-3.3-0.2c-1,0-2-0.1-2.9-0.1c-0.6,0-1.4,0-2.4,0.1
		c-1,0-2.2,0.1-3.6,0.2V39c1.4-0.4,2.4-1.3,3-2.6c0.6-1.3,0.8-4.1,0.8-8.4v-2.5v-1.2c0-5.4-0.7-9.3-2.2-11.7s-3.8-3.7-7-3.7
		c-3.7,0-6.4,1.3-8.3,3.9c-1.9,2.6-2.8,6.4-2.8,11.5v2.9c0,4.8,0.3,7.9,0.8,9.2c0.5,1.3,1.5,2.1,3,2.6v0.5c-1.1-0.1-2.1-0.1-3.2-0.2
		c-1,0-2-0.1-3-0.1c-0.7,0-1.5,0-2.5,0.1C287,39.3,285.9,39.4,284.5,39.5"/>
	<path class="st0" d="M330.7,18.3h19.9c-0.1-3.1-1-5.5-2.7-7.3c-1.7-1.8-3.9-2.7-6.6-2.7c-2.7,0-5,0.9-6.9,2.6
		C332.6,12.6,331.4,15.1,330.7,18.3 M356.4,26.4l0.9,1.2c-1.2,4.1-3.2,7.3-5.8,9.4c-2.7,2.1-6,3.2-10,3.2c-4.9,0-8.9-1.6-12-4.7
		c-3.1-3.1-4.7-7.1-4.7-12c0-4.8,1.5-8.7,4.6-11.8c3.1-3.1,7.1-4.6,11.9-4.6c4.3,0,7.8,1.1,10.6,3.3c2.7,2.2,4.3,5.2,4.8,9.1h-26.1
		c0,0.6-0.1,1.2-0.1,1.7c0,0.6,0,1.2,0,2c0,4.6,1.1,8.3,3.4,11c2.3,2.7,5.3,4.1,9.1,4.1c3.3,0,6-1,8.3-3.1
		C353.5,33.3,355.2,30.3,356.4,26.4"/>
	<path class="st0" d="M360.1,39.5V39c1.5-0.4,2.5-1.3,3-2.6c0.6-1.3,0.8-4.1,0.8-8.3v-2.5v-8c0-3.3-0.2-5.2-0.7-5.9
		c-0.5-0.7-1.4-1.1-2.7-1.1l0-0.5c1.1-0.2,2.2-0.5,3.5-0.8c1.3-0.3,2.7-0.7,4.3-1.2l-0.1,9.1c1.3-3,2.9-5.3,4.8-6.9
		c1.9-1.6,4-2.4,6.2-2.4c0.3,0,0.6,0,0.7,0c0.2,0,0.3,0,0.5,0.1l-2.3,6.6h-0.3c-0.4-0.5-0.8-0.9-1.3-1.1c-0.5-0.2-1-0.4-1.7-0.4
		c-2,0-3.5,0.9-4.6,2.8c-1.1,1.8-1.6,4.5-1.6,8v3.5c0,4.8,0.3,7.8,0.8,9.1c0.5,1.3,1.6,2.1,3.1,2.6l0,0.5c-1.1-0.1-2.1-0.1-3.2-0.2
		c-1,0-2.1-0.1-3.1-0.1c-0.9,0-1.8,0-2.8,0.1C362.4,39.3,361.3,39.4,360.1,39.5"/>
	<path class="st0" d="M382,37.3l2.1-6.8h0.3c0.3,2.5,1.6,4.5,3.8,6.1c2.2,1.5,5.1,2.3,8.4,2.3c2.9,0,5.2-0.7,7-2.1
		c1.8-1.4,2.6-3.3,2.6-5.5c0-1.9-0.6-3.3-1.7-4.2c-1.1-0.9-3.8-1.6-8.1-2.1c-4.3-0.6-7.4-1.5-9.4-2.9c-2-1.4-2.9-3.3-2.9-5.7
		c0-2.6,1.3-4.8,3.9-6.6c2.6-1.8,6-2.6,10.2-2.6c2.3,0,4.4,0.2,6.4,0.5c2,0.3,3.8,0.8,5.4,1.5l-1.7,5.8h-0.4c-0.6-2.2-1.7-3.9-3.2-5
		c-1.5-1.1-3.5-1.7-6-1.7c-2.7,0-4.9,0.7-6.6,2c-1.7,1.3-2.6,3-2.6,5.1c0,1.6,0.6,2.9,1.8,3.7c1.2,0.8,3.9,1.4,8.1,1.9
		c4.7,0.5,8,1.4,9.9,2.7c1.8,1.2,2.8,3.1,2.8,5.5c0,3.4-1.4,6-4.3,8.1c-2.9,2-6.8,3-11.7,3c-2.6,0-5-0.2-7.3-0.7
		C386.3,39,384.1,38.3,382,37.3"/>
</g>
</svg>
